# xmcd CD database file generated by Grip 3.1.4
# 
# Track frame offsets:
#       150
#       12640
#       14913
#       39554
#       64236
#       86564
#       104797
#       136854
#       170532
#       183582
#       210642
#       244722
#       253917
#       285090
#       305670
#       329407
# 
# Disc length: 4440 seconds
# 
# Revision: 3
# Processed by: cddbd v1.5.1PL0 Copyright (c) Steve Scherf et al.
# Submitted via: Grip 3.1.4
# 
DISCID=f1115610
DTITLE=Daft Punk - Homework
DYEAR=1996
DGENRE=Electronic
TTITLE0=Daftendirekt
TTITLE1=Wdpk 83.7 fm
TTITLE2=Revolution 909
TTITLE3=Da Funk
TTITLE4=Phoenix
TTITLE5=Fresh
TTITLE6=Around The World
TTITLE7=Rollin' and Scratchin'
TTITLE8=Teachers
TTITLE9=High Fidelity
TTITLE10=Rock'n Roll
TTITLE11=Oh Yeah
TTITLE12=Burnin'
TTITLE13=Indo Silver Club
TTITLE14=Alive
TTITLE15=Funk Art
EXTD=
EXTT0=
EXTT1=
EXTT2=
EXTT3=
EXTT4=
EXTT5=
EXTT6=
EXTT7=
EXTT8=
EXTT9=
EXTT10=
EXTT11=
EXTT12=
EXTT13=
EXTT14=
EXTT15=
PLAYORDER=
